<svg width="1400" height="900" viewBox="0 0 1400 900" fill="none" xmlns="http://www.w3.org/2000/svg">
  <rect width="1400" height="900" rx="24" fill="#040816"/>
  <rect x="32" y="32" width="1336" height="836" rx="24" fill="#07111F" stroke="#1F2937" stroke-width="2"/>
  <rect x="64" y="64" width="1272" height="84" rx="18" fill="#0B1628" stroke="#1F2937"/>
  <rect x="92" y="88" width="280" height="20" rx="10" fill="#E2E8F0"/>
  <rect x="92" y="120" width="180" height="10" rx="5" fill="#64748B"/>
  <rect x="1000" y="84" width="150" height="42" rx="12" fill="#111827" stroke="#374151"/>
  <rect x="1170" y="84" width="120" height="42" rx="12" fill="#111827" stroke="#374151"/>
  <rect x="64" y="172" width="1272" height="96" rx="18" fill="#0B1628" stroke="#1F2937"/>
  <rect x="92" y="198" width="180" height="18" rx="9" fill="#1E3A8A"/>
  <rect x="92" y="226" width="120" height="14" rx="7" fill="#64748B"/>
  <rect x="320" y="194" width="180" height="54" rx="14" fill="#111827" stroke="#1F2937"/>
  <rect x="520" y="194" width="180" height="54" rx="14" fill="#111827" stroke="#1F2937"/>
  <rect x="720" y="194" width="180" height="54" rx="14" fill="#111827" stroke="#1F2937"/>
  <rect x="920" y="194" width="180" height="54" rx="14" fill="#111827" stroke="#1F2937"/>
  <rect x="1120" y="194" width="180" height="54" rx="14" fill="#111827" stroke="#1F2937"/>
  <rect x="64" y="292" width="780" height="520" rx="20" fill="#0B1628" stroke="#1F2937"/>
  <rect x="92" y="324" width="220" height="16" rx="8" fill="#E2E8F0"/>
  <rect x="92" y="352" width="120" height="12" rx="6" fill="#64748B"/>
  <path d="M120 736C180 660 230 608 300 580C350 560 410 548 470 560C540 574 590 632 642 642C694 650 740 612 790 540" stroke="#3B82F6" stroke-width="5" stroke-linecap="round"/>
  <path d="M120 730C180 684 252 632 320 620C390 608 446 620 520 652C590 682 660 710 790 694" stroke="#F59E0B" stroke-width="3" stroke-dasharray="10 10" stroke-linecap="round"/>
  <rect x="860" y="292" width="476" height="240" rx="20" fill="#0B1628" stroke="#1F2937"/>
  <rect x="892" y="324" width="220" height="16" rx="8" fill="#E2E8F0"/>
  <rect x="892" y="352" width="140" height="12" rx="6" fill="#64748B"/>
  <path d="M900 468C930 430 962 404 1000 394C1030 386 1070 388 1100 420C1124 446 1142 486 1180 498" stroke="#10B981" stroke-width="6" stroke-linecap="round"/>
  <rect x="860" y="556" width="476" height="256" rx="20" fill="#0B1628" stroke="#1F2937"/>
  <rect x="892" y="584" width="220" height="16" rx="8" fill="#E2E8F0"/>
  <rect x="892" y="612" width="150" height="12" rx="6" fill="#64748B"/>
  <rect x="900" y="650" width="420" height="12" rx="6" fill="#111827"/>
  <rect x="900" y="678" width="360" height="12" rx="6" fill="#111827"/>
  <rect x="900" y="706" width="392" height="12" rx="6" fill="#111827"/>
  <rect x="900" y="734" width="330" height="12" rx="6" fill="#111827"/>
  <rect x="104" y="642" width="140" height="12" rx="6" fill="#1F2937"/>
  <rect x="104" y="670" width="180" height="12" rx="6" fill="#1F2937"/>
  <rect x="104" y="698" width="160" height="12" rx="6" fill="#1F2937"/>
</svg>
